<!DOCTYPE svg PUBLIC "-//W3C//DTD SVG 1.1//EN" "http://www.w3.org/Graphics/SVG/1.1/DTD/svg11.dtd">
<!-- Uploaded to: SVG Repo, www.svgrepo.com, Transformed by: SVG Repo Mixer Tools -->
<svg fill="#000000" width="800px" height="800px" viewBox="-2.4 -2.4 28.80 28.80" id="dashboard" data-name="Flat Color" xmlns="http://www.w3.org/2000/svg" class="icon flat-color" stroke="#000000">
<g id="SVGRepo_bgCarrier" stroke-width="0">
<path transform="translate(-2.4, -2.4), scale(1.7999999999999998)" fill="#7ed0ec" d="M9.166.33a2.25 2.25 0 00-2.332 0l-5.25 3.182A2.25 2.25 0 00.5 5.436v5.128a2.25 2.25 0 001.084 1.924l5.25 3.182a2.25 2.25 0 002.332 0l5.25-3.182a2.25 2.25 0 001.084-1.924V5.436a2.25 2.25 0 00-1.084-1.924L9.166.33z" strokewidth="0"/>
</g>
<g id="SVGRepo_tracerCarrier" stroke-linecap="round" stroke-linejoin="round"/>
<g id="SVGRepo_iconCarrier">
<path id="secondary" d="M22,4V7a2,2,0,0,1-2,2H15a2,2,0,0,1-2-2V4a2,2,0,0,1,2-2h5A2,2,0,0,1,22,4ZM9,15H4a2,2,0,0,0-2,2v3a2,2,0,0,0,2,2H9a2,2,0,0,0,2-2V17A2,2,0,0,0,9,15Z" style="fill: #ff2600;"/>
<path id="primary" d="M11,4v7a2,2,0,0,1-2,2H4a2,2,0,0,1-2-2V4A2,2,0,0,1,4,2H9A2,2,0,0,1,11,4Zm9,7H15a2,2,0,0,0-2,2v7a2,2,0,0,0,2,2h5a2,2,0,0,0,2-2V13A2,2,0,0,0,20,11Z" style="fill: #05ff22;"/>
</g>
</svg>